<svg xmlns="http://www.w3.org/2000/svg" xmlns:xlink="http://www.w3.org/1999/xlink" width="378" zoomAndPan="magnify" viewBox="0 0 283.5 283.500005" height="378" preserveAspectRatio="xMidYMid meet" version="1.0"><defs><clipPath id="c43a42da72"><path d="M 0 0.0078125 L 282.703125 0.0078125 L 282.703125 203.191406 L 0 203.191406 Z M 0 0.0078125 " clip-rule="nonzero"/></clipPath><clipPath id="eefab7d28f"><rect x="0" width="283" y="0" height="204"/></clipPath></defs><g transform="matrix(1, 0, 0, 1, 0, 40)"><g clip-path="url(#eefab7d28f)"><path fill="#d9d9d9" d="M 4.722656 4.648438 L 141.496094 141.425781 L 278.269531 4.648438 L 278.269531 62.007812 L 141.496094 198.78125 L 4.722656 62.007812 Z M 4.722656 4.648438 " fill-opacity="1" fill-rule="nonzero"/><g clip-path="url(#c43a42da72)"><path fill="#dbdbdb" d="M 0.308594 62.007812 L 0.308594 4.648438 C 0.308594 4.214844 0.371094 3.785156 0.5 3.367188 C 0.625 2.953125 0.808594 2.5625 1.050781 2.199219 C 1.292969 1.835938 1.585938 1.515625 1.921875 1.238281 C 2.257812 0.960938 2.628906 0.742188 3.03125 0.574219 C 3.433594 0.40625 3.855469 0.300781 4.289062 0.257812 C 4.722656 0.214844 5.152344 0.238281 5.582031 0.324219 C 6.007812 0.40625 6.414062 0.554688 6.800781 0.757812 C 7.183594 0.964844 7.53125 1.222656 7.839844 1.53125 L 141.496094 135.183594 L 275.152344 1.53125 C 275.460938 1.222656 275.804688 0.964844 276.191406 0.757812 C 276.574219 0.554688 276.980469 0.40625 277.410156 0.324219 C 277.835938 0.238281 278.269531 0.214844 278.703125 0.257812 C 279.136719 0.300781 279.554688 0.40625 279.957031 0.574219 C 280.363281 0.742188 280.730469 0.960938 281.070312 1.238281 C 281.40625 1.515625 281.695312 1.835938 281.9375 2.199219 C 282.179688 2.5625 282.367188 2.953125 282.492188 3.367188 C 282.617188 3.785156 282.683594 4.214844 282.683594 4.648438 L 282.683594 62.007812 C 282.683594 63.226562 282.25 64.265625 281.390625 65.125 L 144.613281 201.902344 C 144.410156 202.105469 144.1875 202.289062 143.945312 202.449219 C 143.707031 202.609375 143.453125 202.746094 143.183594 202.855469 C 142.917969 202.96875 142.640625 203.050781 142.355469 203.109375 C 142.070312 203.164062 141.785156 203.191406 141.496094 203.191406 C 141.207031 203.191406 140.917969 203.164062 140.632812 203.109375 C 140.351562 203.050781 140.074219 202.96875 139.808594 202.855469 C 139.539062 202.746094 139.285156 202.609375 139.042969 202.449219 C 138.804688 202.289062 138.582031 202.105469 138.375 201.902344 L 1.601562 65.125 C 0.738281 64.265625 0.308594 63.226562 0.308594 62.007812 Z M 9.132812 15.300781 L 9.132812 60.179688 L 141.496094 192.542969 L 273.859375 60.179688 L 273.859375 15.300781 L 144.613281 144.542969 C 144.410156 144.75 144.1875 144.929688 143.945312 145.09375 C 143.707031 145.253906 143.453125 145.390625 143.183594 145.5 C 142.917969 145.609375 142.640625 145.695312 142.355469 145.75 C 142.070312 145.808594 141.785156 145.835938 141.496094 145.835938 C 141.207031 145.835938 140.917969 145.808594 140.632812 145.75 C 140.351562 145.695312 140.074219 145.609375 139.808594 145.5 C 139.539062 145.390625 139.285156 145.253906 139.042969 145.09375 C 138.804688 144.929688 138.582031 144.75 138.375 144.542969 Z M 9.132812 15.300781 " fill-opacity="1" fill-rule="nonzero"/></g></g></g></svg>