<svg xmlns="http://www.w3.org/2000/svg" xmlns:xlink="http://www.w3.org/1999/xlink" width="378" zoomAndPan="magnify" viewBox="0 0 283.5 283.500005" height="378" preserveAspectRatio="xMidYMid meet" version="1.0"><defs><clipPath id="303cecf707"><path d="M 0 0.953125 L 283 0.953125 L 283 170.160156 L 0 170.160156 Z M 0 0.953125 " clip-rule="nonzero"/></clipPath><clipPath id="ad9ade0a6e"><rect x="0" width="283" y="0" height="171"/></clipPath></defs><g transform="matrix(1, 0, 0, 1, 0, 56)"><g clip-path="url(#ad9ade0a6e)"><g clip-path="url(#303cecf707)"><path fill="#fbfbfb" d="M 111.558594 7.136719 C 70.34375 21.628906 35.691406 35.765625 11.285156 48.035156 C 3.222656 52.089844 -0.0117188 54.464844 -0.0117188 56.335938 C -0.0117188 61.144531 1.820312 61.878906 30.164062 68.449219 C 38.652344 70.414062 48.019531 72.671875 50.972656 73.464844 L 56.34375 74.902344 L 55.382812 98.324219 L 54.417969 121.75 L 58.4375 125.539062 C 63.875 130.675781 80.480469 138.160156 97.914062 143.339844 C 115.605469 148.597656 144.21875 154.730469 151.050781 154.730469 C 157.902344 154.730469 183.933594 145.875 194.578125 139.921875 C 206.492188 133.261719 217.011719 124.691406 219.734375 119.421875 C 221.746094 115.535156 221.828125 113.144531 220.410156 99.433594 C 219.523438 90.867188 218.441406 81.566406 218.007812 78.769531 C 217.230469 73.789062 217.351562 73.625 223.710938 71.199219 C 227.285156 69.832031 230.570312 69.074219 231.007812 69.515625 C 231.449219 69.953125 231.90625 76.660156 232.03125 84.414062 C 232.238281 97.683594 232.058594 98.648438 229.007812 100.800781 C 224.375 104.0625 222.628906 109.429688 224.632812 114.265625 C 225.96875 117.5 225.699219 120.246094 223.097656 129.792969 C 221.207031 136.742188 219.875 145.828125 219.78125 152.441406 C 219.628906 162.863281 219.835938 163.648438 223.378906 166.320312 C 225.453125 167.890625 230.179688 169.449219 233.949219 169.808594 C 240.042969 170.394531 241.429688 169.960938 247.035156 165.691406 C 253.132812 161.046875 253.316406 160.679688 253.71875 152.300781 C 254.039062 145.6875 253.257812 141.300781 250.359375 133.417969 C 247.480469 125.597656 246.644531 120.929688 246.839844 113.824219 C 247.078125 105.042969 246.851562 104.300781 242.964844 101.191406 C 238.886719 97.9375 238.824219 97.671875 238.347656 81.933594 L 237.867188 65.976562 L 259.398438 58.023438 C 282.28125 49.570312 285.898438 46.980469 281.179688 42.445312 C 276.714844 38.160156 210.375 17.394531 166.921875 6.679688 C 135.714844 -1.011719 134.710938 -1.003906 111.558594 7.136719 M 112.261719 13.617188 C 76.324219 25.78125 9.269531 53.707031 11.34375 55.644531 C 11.660156 55.941406 30.234375 60.933594 52.617188 66.738281 C 75 72.546875 104.683594 80.59375 118.578125 84.625 C 132.46875 88.65625 145.417969 92.191406 147.347656 92.476562 C 151.183594 93.054688 224.328125 64.402344 222.242188 63.140625 C 221.574219 62.738281 213.445312 60.742188 204.183594 58.710938 C 194.921875 56.675781 180.292969 53.21875 171.671875 51.023438 C 157.699219 47.460938 155.777344 47.261719 153.886719 49.148438 C 151.519531 51.515625 139.554688 53.09375 134.1875 51.75 C 126.023438 49.699219 123.726562 41.875 129.871094 37.042969 C 137.390625 31.125 146.660156 31.566406 155.058594 38.238281 C 160.078125 42.230469 175.230469 46.425781 221.089844 56.527344 L 235.1875 59.632812 L 253.121094 52.855469 C 267.457031 47.441406 270.628906 45.769531 268.929688 44.527344 C 260.9375 38.683594 172.234375 13.335938 136.820312 6.773438 C 135.277344 6.488281 124.226562 9.566406 112.261719 13.617188 M 136.277344 40.023438 C 134.433594 40.976562 132.898438 42.386719 132.863281 43.160156 C 132.761719 45.480469 139.5625 47.125 145.027344 46.097656 C 151.074219 44.964844 151.859375 41.632812 146.554688 39.613281 C 141.910156 37.851562 140.355469 37.914062 136.277344 40.023438 M 181.027344 88.203125 C 165.207031 94.617188 151.234375 99.894531 149.980469 99.929688 C 148.730469 99.96875 129.542969 94.945312 107.351562 88.769531 C 85.15625 82.59375 66.1875 77.542969 65.199219 77.542969 C 63.035156 77.542969 61.992188 85.34375 61.4375 105.585938 L 61.039062 120.296875 L 68.265625 124.628906 C 76.386719 129.488281 103.875 139.042969 122.390625 143.433594 C 142.125 148.113281 153.367188 148.5625 164.890625 145.113281 C 184.457031 139.265625 208.015625 125.476562 213.972656 116.386719 C 215.859375 113.507812 215.847656 111.277344 213.859375 95.703125 C 212.636719 86.101562 211.222656 77.859375 210.714844 77.390625 C 210.210938 76.921875 196.851562 81.789062 181.027344 88.203125 M 230.878906 106.480469 C 228.042969 109.316406 228.574219 112.414062 232.316406 114.894531 C 237.792969 118.523438 244.335938 110.535156 239.691406 105.890625 C 237.339844 103.539062 233.570312 103.792969 230.878906 106.480469 M 236.105469 121.988281 C 235.132812 122.375 234.65625 123.203125 235.042969 123.828125 C 235.425781 124.449219 235.015625 133.148438 234.125 143.160156 C 232.421875 162.316406 232.847656 166.449219 236.394531 165.085938 C 239.625 163.847656 241.710938 153.925781 241.136719 142.535156 C 240.855469 136.941406 241.097656 132.839844 241.679688 133.421875 C 243.148438 134.890625 245.585938 148.359375 245.585938 155.003906 C 245.585938 158.742188 246.09375 160.195312 247.175781 159.527344 C 249.515625 158.078125 247.742188 142.894531 243.902344 131.5 C 240.710938 122.03125 239.542969 120.609375 236.105469 121.988281 M 227.507812 135.4375 C 225.023438 146.117188 223.9375 159.808594 225.503906 160.773438 C 226.738281 161.539062 230.90625 129.757812 229.726562 128.578125 C 229.449219 128.300781 228.453125 131.386719 227.507812 135.4375 " fill-opacity="1" fill-rule="evenodd"/></g></g></g></svg>